<svg id="Layer_1" data-name="Layer 1" xmlns="http://www.w3.org/2000/svg" viewBox="0 0 249 230.72"><defs><style>.cls-1{fill:#223662;}.cls-2{fill:#2f5596;}.cls-3{fill:#009245;}.cls-4{fill:none;}.cls-5{fill:#fff;}</style></defs><polygon class="cls-1" points="124.17 230.72 34.5 169.16 124.17 107.6 214.5 169.16 124.17 230.72"/><polygon class="cls-2" points="124.09 200.09 13.5 124.16 124.09 48.23 235.5 124.16 124.09 200.09"/><polygon class="cls-3" points="124.04 170.32 0 85.16 124.04 0 249 85.16 124.04 170.32"/><line class="cls-4" x1="208" y1="158.16" x2="230" y2="123.16"/><path class="cls-5" d="M760.14,316.69a97.5,97.5,0,0,0-16.82-2.22v-.05h-.09a5.47,5.47,0,0,1-.59,0l-.34-.05h-1v.07c-.56,0-1.13,0-1.69,0a64.94,64.94,0,0,0-18.88-7.53v-4.28c1.71-.14,4.38-.87,4.38-4.74,0-3-1.88-10.47-5.38-10.47s-5.38,7.44-5.38,10.47a4.42,4.42,0,0,0,1.72,3.91,5.54,5.54,0,0,0,2.67.83v3.86a64.25,64.25,0,0,0-10.1-1.13v-3.84c1.63-.14,4.09-.86,4.09-4.49,0-2.85-1.78-9.84-5.08-9.84-1.47,0-2.79,1.36-3.82,3.93a17.48,17.48,0,0,0-1.27,5.91c0,3.63,2.47,4.35,4.09,4.49v3.8c-1.45,0-2.9,0-4.36.13h0a44.84,44.84,0,0,0-3.25-15.05c-3.12-7.76-6.39-9.38-8.59-9.38s-5.47,1.62-8.59,9.38a44.84,44.84,0,0,0-3.25,15.05,12.45,12.45,0,0,0,1.09,5.53c-.51.22-1,.46-1.5.69a1,1,0,0,0-.48,1.33,1,1,0,0,0,.9.56,1.07,1.07,0,0,0,.43-.09l1.77-.81c1.78,2,4.4,2.77,7.09,3l-.75,13.44q-4.35.31-8.7,1a1,1,0,1,0,.32,2,93.33,93.33,0,0,1,36.58,1.22,94.39,94.39,0,0,1,33,14.77,1,1,0,0,0,.58.18,1,1,0,0,0,.57-1.81,96.64,96.64,0,0,0-55.79-17.6l-1.19-13.15c4.48-.31,8.91-1.91,9.67-8.26a63.58,63.58,0,0,1,16.56,1.07v1.37a1,1,0,1,0,2,0v-.94a62.86,62.86,0,0,1,14.9,5.55c-1.65.06-3.31.16-5,.31a96.16,96.16,0,0,0-28.8,7.09,1,1,0,0,0,.39,1.92,1.08,1.08,0,0,0,.38-.08,94.55,94.55,0,0,1,57.05-5,1,1,0,1,0,.43-1.95Zm-70.95,12.23.74-13.21h.62l1.19,13.11Zm8.4-16.73c-1.37.94-3.33,1.43-6.11,1.52v-6.26l6.84-5.15a1,1,0,0,0,.19-1.4,1,1,0,0,0-1.39-.19L691.48,305v-6.57l4.94-4.09a1,1,0,0,0-1.27-1.53l-4.32,3.56-2.5-4.71a1,1,0,0,0-1.76.93l2.92,5.49v4l-3.93-2.51a1,1,0,1,0-1.08,1.68l5,3.19v9.26c-2.79-.09-4.75-.58-6.12-1.51-1.84-1.27-2.74-3.5-2.74-6.82,0-8,5-22.44,9.85-22.44,2.17,0,4.69,3,6.74,8.13a42.81,42.81,0,0,1,3.11,14.31C700.33,308.7,699.43,310.93,697.59,312.19Zm7-15.22a15.35,15.35,0,0,1,1.13-5.16c.85-2.12,1.66-2.68,2-2.68s1.11.56,2,2.68a15.56,15.56,0,0,1,1.12,5.16c0,1.92-.75,2.53-3.09,2.53S704.58,298.89,704.58,297Zm15.18,3.64c-2.56,0-3.39-.67-3.39-2.78a16.61,16.61,0,0,1,1.22-5.56c.8-2,1.69-2.91,2.17-2.91s1.37.91,2.18,2.91a16.83,16.83,0,0,1,1.21,5.56C723.15,299.94,722.33,300.61,719.76,300.61Z" transform="translate(-597 -216.84)"/><path class="cls-5" d="M725.9,282l-1.18,2.17a1.19,1.19,0,0,0,1.06,1.77,1.19,1.19,0,0,0,1.05-.62l1.61-3h5.69l-1,1.81a1.21,1.21,0,0,0,.48,1.63,1.3,1.3,0,0,0,.58.14,1.19,1.19,0,0,0,1-.62l1.61-3h5.69l-1,1.81a1.21,1.21,0,0,0,.48,1.63,1.3,1.3,0,0,0,.57.14,1.2,1.2,0,0,0,1.06-.62l1.61-3H751l-1,1.81a1.2,1.2,0,0,0,.48,1.63,1.3,1.3,0,0,0,.57.14,1.2,1.2,0,0,0,1.06-.62l1.61-3h5.68l-1,1.81a1.2,1.2,0,0,0,1.05,1.77,1.22,1.22,0,0,0,1.06-.62l1.87-3.45a1.11,1.11,0,0,0,.15-.55,4.2,4.2,0,0,0,1.47-3.2,4.25,4.25,0,0,0-3-4,8.72,8.72,0,0,0,.37-2.54,9,9,0,0,0-13.1-8,5.61,5.61,0,0,0-4.33-2.08,5.55,5.55,0,0,0-4.7,2.58,8.84,8.84,0,0,0-4-.94,9,9,0,0,0-9,9,8.92,8.92,0,0,0,.21,1.93,4.24,4.24,0,0,0-.61,8Zm1.71-5.72.3,0a1.21,1.21,0,0,0,1.31-1.65,6.59,6.59,0,0,1,9-8.46c.3.15.89.54.89.54a3,3,0,0,1,.42.37,3.14,3.14,0,0,1,1,2.13,1.2,1.2,0,0,0,2.4,0,5.5,5.5,0,0,0-1.66-3.81,3.15,3.15,0,0,1,2.73-1.57,3.18,3.18,0,0,1,2.86,1.82,1.21,1.21,0,0,0,.78.65,1.19,1.19,0,0,0,1-.18,6.52,6.52,0,0,1,3.8-1.2,6.59,6.59,0,0,1,6.59,6.59,6.47,6.47,0,0,1-.73,3,1.2,1.2,0,0,0,.09,1.24,1.18,1.18,0,0,0,1.14.5l.24,0a1.84,1.84,0,1,1,0,3.68H727.61a1.84,1.84,0,1,1,0-3.68Z" transform="translate(-597 -216.84)"/><path class="cls-5" d="M757.63,288.12a1.21,1.21,0,0,0-1.63.48l-1.88,3.45a1.19,1.19,0,0,0,1.06,1.77,1.19,1.19,0,0,0,1.05-.62l1.88-3.45A1.21,1.21,0,0,0,757.63,288.12Z" transform="translate(-597 -216.84)"/><path class="cls-5" d="M749.21,288.12a1.21,1.21,0,0,0-1.63.48l-1.88,3.45a1.19,1.19,0,0,0,1.06,1.77,1.19,1.19,0,0,0,1-.62l1.88-3.45A1.2,1.2,0,0,0,749.21,288.12Z" transform="translate(-597 -216.84)"/><path class="cls-5" d="M740.79,288.12a1.21,1.21,0,0,0-1.63.48l-1.87,3.45a1.2,1.2,0,0,0,2.1,1.15l1.88-3.45A1.2,1.2,0,0,0,740.79,288.12Z" transform="translate(-597 -216.84)"/><path class="cls-5" d="M730.74,288.6l-1.87,3.45a1.19,1.19,0,0,0,.48,1.63,1.15,1.15,0,0,0,.57.14,1.19,1.19,0,0,0,1.05-.62l1.88-3.45a1.2,1.2,0,1,0-2.11-1.15Z" transform="translate(-597 -216.84)"/><path class="cls-5" d="M731.41,301.16a1.18,1.18,0,0,0,1.62-.48l1.88-3.44a1.2,1.2,0,0,0-2.11-1.15l-1.87,3.45A1.18,1.18,0,0,0,731.41,301.16Z" transform="translate(-597 -216.84)"/><path class="cls-5" d="M743.38,295.77a1.2,1.2,0,0,0-1.63.48l-1.88,3.45a1.2,1.2,0,0,0,1,1.77,1.21,1.21,0,0,0,1.06-.63l1.88-3.44A1.21,1.21,0,0,0,743.38,295.77Z" transform="translate(-597 -216.84)"/></svg>